<svg width="1012" height="243" viewBox="0 0 1012 243" fill="none" xmlns="http://www.w3.org/2000/svg">
<rect width="1012" height="243" fill="white"/>
<path d="M658.345 60.7H689.948V179H662.908L615.926 114.949V179H584.323V60.7H612.884L658.345 122.892V60.7Z" fill="#005494"/>
<path d="M803.846 132.525C803.846 135.398 803.677 138.102 803.339 140.975H735.57C737.598 151.453 744.189 156.861 754.16 156.861C761.427 156.861 767.68 153.65 770.553 148.242H801.987C795.565 169.029 776.975 182.042 754.16 182.042C725.599 182.042 704.643 161.255 704.643 133.37C704.643 105.485 725.43 84.867 754.16 84.867C783.566 84.867 803.846 105.823 803.846 132.525ZM754.16 109.541C745.034 109.541 738.612 114.442 736.077 123.568H772.919C770.215 114.442 763.624 109.541 754.16 109.541Z" fill="#005494"/>
<path d="M902.924 179H867.772L852.731 152.129L837.521 179H802.707L832.958 131.68L804.904 87.74H839.718L852.9 110.724L866.589 87.74H900.896L872.504 130.835L902.924 179Z" fill="#005494"/>
<path d="M959.922 151.622H971.921V179H950.289C930.177 179 917.841 166.663 917.841 146.383V112.076H901.11V104.64L942.008 61.207H948.599V87.74H971.414V112.076H949.275V141.144C949.275 147.566 953.331 151.622 959.922 151.622Z" fill="#005494"/>
<path d="M303.559 133.37C303.559 145.369 294.94 154.326 283.11 154.326C271.28 154.326 262.661 145.369 262.661 133.37C262.661 121.54 271.28 112.752 283.11 112.752C294.94 112.752 303.559 121.54 303.559 133.37Z" fill="#005494"/>
<path fill-rule="evenodd" clip-rule="evenodd" d="M558 40H40V203H558V40ZM157.048 60.7V90.106H124.938V179H92.152V90.106H60.042V60.7H157.048ZM217.524 87.402H225.974V116.132H213.637C202.652 116.132 197.92 121.033 197.92 132.694V179H166.486V87.7399H187.611L192.512 97.8799C198.934 90.444 206.708 87.402 217.524 87.402ZM333.472 87.7399H309.981L306.77 94.838C299.334 88.585 289.701 85.0359 278.885 85.0359C251 85.0359 231.058 105.147 231.058 133.37C231.058 161.762 251 182.042 278.885 182.042C289.532 182.042 298.996 178.662 306.432 172.578L309.136 179H333.472V87.7399ZM408.404 85.205C429.529 85.205 443.556 100.246 443.556 123.399V179H412.122V127.793C412.122 117.146 408.066 111.907 400.123 111.907C390.321 111.907 384.744 118.667 384.744 130.328V179H353.31V87.7399H375.449L379.674 97.204C386.434 89.5989 396.574 85.205 408.404 85.205ZM457.166 149.087C457.504 168.86 472.545 182.042 497.388 182.042C521.724 182.042 537.779 169.536 537.779 150.439C537.779 127.736 519.145 124.49 504.682 121.971L504.148 121.878C495.529 120.357 488.6 119.005 488.6 113.935C488.6 109.71 491.98 107.175 497.05 107.175C502.627 107.175 506.514 109.879 506.514 115.625H536.089C535.751 97.204 520.541 84.8669 497.388 84.8669C474.066 84.8669 458.349 96.697 458.349 114.949C458.349 137.088 477.108 141.313 491.304 143.679C500.092 145.031 507.021 146.552 507.021 151.791C507.021 156.523 502.627 158.889 498.064 158.889C492.149 158.889 487.417 155.847 487.417 149.087H457.166Z" fill="#005494"/>
</svg>
